Coordinates
version=1
nRows=12
nColumns=24
inDegrees=yes

Units are S.I. units (second, meters, Newtons, ...)
Angles are in degrees.

endheader
time	pelvis_tilt	pelvis_list	pelvis_rotation	pelvis_tx	pelvis_ty	pelvis_tz	hip_flexion_r	hip_adduction_r	hip_rotation_r	knee_angle_r	ankle_angle_r	subtalar_angle_r	mtp_angle_r	hip_flexion_l	hip_adduction_l	hip_rotation_l	knee_angle_l	ankle_angle_l	subtalar_angle_l	mtp_angle_l	lumbar_extension	lumbar_bending	lumbar_rotation
      2.13000000	     -5.68976751	      1.77100033	    359.57014146	      0.15542046	      1.39120492	     -0.99305694	     14.93700316	      1.85811795	      2.96156875	    -14.87156427	      0.00000995	     -5.83682809	      2.81579968	     19.25522991	      3.71111075	      3.16969505	    -52.65163184	     -1.11315673	     10.24515799	     38.61620440	     -7.79464133	      6.73199914	     11.22046904
      2.13500000	     -5.71839733	      1.91073287	    359.56217913	      0.15992697	      1.39177962	     -0.99271943	     14.60979482	      1.72532932	      3.01931481	    -14.73987525	      0.18914522	     -5.80145635	      2.79229129	     19.75950368	      3.82764121	      3.03681678	    -52.22716215	     -0.80069716	     10.09459637	     38.17601584	     -7.78019346	      6.57375402	     11.28092712
      2.14000000	     -5.75339827	      2.05446142	    359.55414047	      0.16442944	      1.39232692	     -0.99236831	     14.28896005	      1.59084507	      3.11005562	    -14.60638911	      0.37749502	     -5.79753013	      2.78720978	     20.25299853	      3.94618748	      2.90725990	    -51.73868267	     -0.55118790	      9.89341466	     37.84328272	     -7.76155312	      6.41483988	     11.30478708
      2.14500000	     -5.76423612	      2.17326425	    359.56487993	      0.16894683	      1.39287792	     -0.99207005	     13.93517407	      1.47119339	      3.12372196	    -14.46347134	      0.55591920	     -5.75694029	      2.74077109	     20.70084685	      4.04632936	      2.79893227	    -51.20398361	     -0.24463379	      9.70518015	     37.31426832	     -7.75696180	      6.26969328	     11.38568905
      2.15000000	     -5.76345155	      2.30454256	    359.56801038	      0.17344985	      1.39341544	     -0.99175093	     13.56874292	      1.34199116	      3.17897652	    -14.31760327	      0.73368387	     -5.74456129	      2.72577240	     21.11478613	      4.15537205	      2.68485165	    -50.59844159	     -0.02351086	      9.45594441	     36.94735317	     -7.77834691	      6.12155206	     11.41162266
      2.15500000	     -5.76901760	      2.43069942	    359.57417587	      0.17796369	      1.39392405	     -0.99141755	     13.20579616	      1.21750958	      3.22530513	    -14.16589279	      0.90944243	     -5.72368498	      2.71619397	     21.51631751	      4.25608980	      2.57525583	    -49.93872984	      0.17727434	      9.18615438	     36.58234273	     -7.78662163	      5.97258175	     11.44077245
      2.16000000	     -5.76386507	      2.55475618	    359.57763152	      0.18245554	      1.39440675	     -0.99107604	     12.83394477	      1.09636008	      3.28488072	    -14.01620020	      1.09376860	     -5.70923951	      2.72393765	     21.88718665	      4.35364484	      2.47321388	    -49.22054017	      0.33369650	      8.90784181	     36.26706023	     -7.81128935	      5.82785282	     11.45681386
      2.16500000	     -5.76834191	      2.67549542	    359.58297834	      0.18695087	      1.39484521	     -0.99070412	     12.47496796	      0.97868352	      3.29883398	    -13.86916327	      1.27603137	     -5.69375449	      2.73799579	     22.25269571	      4.43940980	      2.36033185	    -48.45776160	      0.48243121	      8.61793208	     35.95908321	     -7.82807722	      5.67627734	     11.46841911
      2.17000000	     -5.73960576	      2.77968311	    359.58735077	      0.19144664	      1.39530334	     -0.99035340	     12.07010750	      0.87447342	      3.32468357	    -13.70288209	      1.45010392	     -5.61862294	      2.75380651	     22.55428720	      4.51648486	      2.28130689	    -47.63294932	      0.61563472	      8.30868533	     35.58248895	     -7.87741159	      5.54161332	     11.50251650
      2.17500000	     -5.73883871	      2.88112475	    359.58938943	      0.19592288	      1.39567722	     -0.98998025	     11.70465254	      0.77517593	      3.32407705	    -13.54903891	      1.63454166	     -5.55697221	      2.78273348	     22.87578987	      4.58170052	      2.19131611	    -46.77233401	      0.73511862	      8.02573754	     35.25199876	     -7.90581860	      5.41520194	     11.51307498
      2.18000000	     -5.74445679	      2.98930405	    359.58595248	      0.20038143	      1.39600432	     -0.98952995	     11.35783536	      0.67611145	      3.31269487	    -13.41476727	      1.82708967	     -5.51798236	      2.82203467	     23.18467012	      4.64021286	      2.08872921	    -45.85601520	      0.82059286	      7.76324372	     34.98573252	     -7.92681641	      5.25891471	     11.50647458
      2.18500000	     -5.72646851	      3.08188872	    359.57935076	      0.20483100	      1.39633582	     -0.98914621	     10.97562790	      0.58524986	      3.30046673	    -13.25604958	      2.01324763	     -5.40041930	      2.87637334	     23.44324559	      4.69636340	      2.02119335	    -44.88659467	      0.89070243	      7.45490072	     34.66356894	     -7.98028215	      5.13638248	     11.53076103
